HIERARCHY
ROOT Hips
{
  OFFSET -33.9132 29.2015 117.021
  CHANNELS 6 Xposition Yposition Zposition Zrotation Xrotation Yrotation
  JOINT LeftUpLeg
  {
    OFFSET 8.64259 1.95398 -2.38835
    CHANNELS 3 Zrotation Xrotation Yrotation
    JOINT LeftLeg
    {
      OFFSET 43.7702 0 0
      CHANNELS 3 Zrotation Xrotation Yrotation
      JOINT LeftFoot
      {
        OFFSET 40.6238 0 0
        CHANNELS 3 Zrotation Xrotation Yrotation
        JOINT LeftToeBase
        {
          OFFSET 12.7242 0 0
          CHANNELS 3 Zrotation Xrotation Yrotation
          End Site
          {
            OFFSET 0 0 0
          }
        }
      }
    }
  }
  JOINT RightUpLeg
  {
    OFFSET -8.2249 1.95398 -2.59336
    CHANNELS 3 Zrotation Xrotation Yrotation
    JOINT RightLeg
    {
      OFFSET 43.5653 0 0
      CHANNELS 3 Zrotation Xrotation Yrotation
      JOINT RightFoot
      {
        OFFSET 40.6238 0 0
        CHANNELS 3 Zrotation Xrotation Yrotation
        JOINT RightToeBase
        {
          OFFSET 12.7242 0 0
          CHANNELS 3 Zrotation Xrotation Yrotation
          End Site
          {
            OFFSET 0 0 0
          }
        }
      }
    }
  }
  JOINT Spine
  {
    OFFSET 0.165834 0.87714 6.61349
    CHANNELS 3 Zrotation Xrotation Yrotation
    JOINT Spine1
    {
      OFFSET 7.38963 1.71661e-005 0
      CHANNELS 3 Zrotation Xrotation Yrotation
      JOINT Spine2
      {
        OFFSET 11.9445 1.14441e-005 0
        CHANNELS 3 Zrotation Xrotation Yrotation
        JOINT Spine3
        {
          OFFSET 14.7254 4.19617e-005 0
          CHANNELS 3 Zrotation Xrotation Yrotation
          JOINT Spine4
          {
            OFFSET 10.9679 0 0
            CHANNELS 3 Zrotation Xrotation Yrotation
            JOINT RightShoulder
            {
              OFFSET 2.46616 -1.6653 3.69651
              CHANNELS 3 Zrotation Xrotation Yrotation
              JOINT RightArm
              {
                OFFSET 13.0012 0 0
                CHANNELS 3 Zrotation Xrotation Yrotation
                JOINT RightForeArm
                {
                  OFFSET 28.7848 1.62311e-005 0
                  CHANNELS 3 Zrotation Xrotation Yrotation
                  JOINT RightHand
                  {
                    OFFSET 26.5688 1.62095e-005 0
                    CHANNELS 3 Zrotation Xrotation Yrotation
                    End Site
                    {
                      OFFSET 0 0 0
                    }
                  }
                }
              }
            }
            JOINT LeftShoulder
            {
              OFFSET 2.38034 -1.29275 -3.7523
              CHANNELS 3 Zrotation Xrotation Yrotation
              JOINT LeftArm
              {
                OFFSET 16.3182 6.07031e-005 0
                CHANNELS 3 Zrotation Xrotation Yrotation
                JOINT LeftForeArm
                {
                  OFFSET 27.0901 0 0
                  CHANNELS 3 Zrotation Xrotation Yrotation
                  JOINT LeftHand
                  {
                    OFFSET 24.5451 1.51738e-005 0
                    CHANNELS 3 Zrotation Xrotation Yrotation
                    End Site
                    {
                      OFFSET 0 0 0
                    }
                  }
                }
              }
            }
            JOINT Neck
            {
              OFFSET 5.0226 -0.0266342 0
              CHANNELS 3 Zrotation Xrotation Yrotation
              JOINT Head
              {
                OFFSET 6.69364 2.86102e-005 0
                CHANNELS 3 Zrotation Xrotation Yrotation
                End Site
                {
                  OFFSET 0 0 0
                }
              }
            }
          }
        }
      }
    }
  }
}
MOTION
Frames:	7
Frame Time:	0.0416667
-120.47 12.2017 115.972 -15.1992 -2.89377 -92.1513 -169.545 -9.25785 95.7135 -21.663 0.718864 -0.744514 70.8392 7.04663 -4.05842 20.7698 -9.81862 11.2236 162.271 -7.61131 75.1765 -25.136 -8.88195 1.9529 69.7156 -5.25153 4.0359 35.6049 -3.09046 -0.00896124 -0.75369 7.95448 -89.2323 10.971 -1.14486 1.6365 -0.700579 -1.07174 1.68525 -23.2347 -1.58375 1.21681 -3.22203 -1.58373 1.21679 86.1547 -17.8233 -121.505 20.9681 19.9469 109.421 -24.7517 28.1581 -143.624 -104.66 13.4516 -15.6314 -90.1857 -31.9641 73.6265 5.33771 -26.6713 30.4541 46.7975 -0.613162 -93.6346 72.6477 -8.64871 -10.231 46.0738 3.01988 -5.62132 -7.7268 5.75841 2.66508 
-120.342 12.6931 115.552 -14.1895 -0.889089 -92.7603 -169.585 -8.75752 94.6845 -20.949 0.182207 -1.34126 69.9879 6.99628 -2.96312 21.1615 -9.41068 10.9381 163.252 -4.73956 75.3873 -27.3305 -11.6656 1.21568 69.444 -5.57373 0.707122 36.7813 -3.66766 0.3111 -0.648707 7.82085 -89.0359 11.2353 -0.842502 2.00296 -0.436944 -0.753543 2.03807 -22.9652 -1.40543 1.65731 -2.95252 -1.40544 1.65729 85.4128 -19.0247 -122.32 20.8951 21.4065 107.794 -24.7102 27.5753 -143.151 -103.717 13.859 -16.1303 -87.5349 -28.4882 77.5914 -0.917215 -25.7592 27.8687 48.1943 -5.12496 -95.6087 71.553 -7.05929 -8.25238 46.0313 1.91707 -8.89024 -8.1187 6.37561 5.25861 
-120.369 12.6017 115.655 -14.2062 -1.20878 -92.9532 -169.769 -8.8887 94.5035 -20.7369 0.61093 -1.25875 69.7589 6.94482 -2.63107 20.9366 -9.24133 10.387 162.95 -4.85882 75.0563 -27.1479 -11.5164 1.35521 69.4957 -5.53677 1.07806 37.3543 -3.88631 0.0901742 -0.670813 7.79956 -89.0288 11.2788 -0.882679 2.0213 -0.393492 -0.792902 2.05815 -22.9219 -1.44928 1.66273 -2.9092 -1.44929 1.66271 85.7378 -18.5475 -121.934 21.4096 17.2082 107.523 -24.7737 27.2955 -142.795 -106.32 11.6075 -13.9814 -88.0408 -28.6449 76.6527 3.27147 -28.6053 30.2017 45.8646 -9.28872 -101.452 65.3577 -4.85659 -6.28805 45.6604 2.01059 -8.84664 -7.87023 6.42972 5.06311 
-120.377 12.5904 115.681 -14.1635 -1.28358 -92.9046 -169.794 -8.74956 94.5579 -20.9124 0.205941 -1.22745 69.8976 6.83307 -3.33508 21.1075 -9.29414 10.6708 162.893 -4.8696 75.0328 -27.0013 -11.83 1.40611 69.4277 -5.52633 1.0517 36.7001 -3.54996 -0.195688 -0.634361 7.77088 -89.0482 11.3356 -0.818566 1.97714 -0.336648 -0.730788 2.01122 -22.8649 -1.37487 1.63986 -2.85229 -1.37486 1.63983 86.3814 -18.0827 -120.798 22.101 12.251 106.228 -24.9101 27.1215 -142.43 -109.614 8.43098 -11.1219 -88.3724 -28.9093 76.0865 5.23583 -29.9394 31.0344 45.1368 -10.6101 -103.462 63.2814 -3.96751 -5.23479 45.3547 1.87288 -9.21998 -7.93296 6.4284 6.03233 
-120.383 12.5514 115.783 -14.1833 -1.45289 -93.0184 -169.977 -8.87614 94.3182 -20.7898 0.30282 -1.15148 69.8346 6.88348 -2.98873 20.9459 -9.25559 10.4226 162.617 -4.82483 74.7491 -26.9909 -12.1139 1.54115 69.2474 -5.45912 0.773777 38.8369 -4.56561 0.256143 -0.648741 7.77305 -89.069 11.3316 -0.856993 1.93965 -0.340571 -0.770808 1.97543 -22.8696 -1.40026 1.59254 -2.85692 -1.40026 1.59252 86.4317 -17.8452 -120.852 22.0736 13.0938 105.356 -26.1428 28.0134 -141.491 -110.352 7.47604 -10.3735 -88.6202 -29.5312 75.8008 1.94449 -26.545 29.4453 47.9562 -6.45624 -97.492 71.4459 -5.43025 -6.10392 45.561 2.13252 -8.2926 -7.93336 6.23192 5.05869 
-120.364 12.5037 115.84 -14.1806 -1.66736 -92.9321 -170.088 -8.80415 94.3485 -20.925 0.349451 -1.0219 70.0007 6.95985 -3.04096 21.3689 -9.30418 10.9799 162.556 -5.06921 74.8223 -26.7512 -11.7204 1.62101 69.4498 -5.5812 0.946844 38.4136 -4.38407 0.289399 -0.637425 7.76709 -89.1107 11.3388 -0.853795 1.85678 -0.333206 -0.771256 1.89256 -22.8629 -1.3723 1.51449 -2.8503 -1.37231 1.51445 86.7848 -17.6263 -120.19 22.2265 12.5469 104.394 -27.6186 29.0261 -140.372 -111.615 5.74059 -9.05519 -88.8001 -29.8575 75.5575 -6.89956 -17.1183 26.3179 43.7989 13.3751 -75.9438 99.6725 -16.2433 -12.3461 45.5431 2.23402 -7.9714 -7.97765 6.14543 5.13385 
-120.371 12.5549 115.752 -14.1845 -1.36032 -93.0157 -169.966 -8.87248 94.3371 -20.7896 0.637078 -1.151 69.7106 6.87258 -2.79907 21.3905 -9.15506 10.7383 162.735 -4.8494 74.8364 -27.0468 -11.7768 1.45285 69.5135 -5.56273 1.08341 38.4563 -4.34902 -0.0879197 -0.566645 7.77028 -89.1245 11.336 -0.71948 1.81535 -0.336053 -0.63888 1.84525 -22.8652 -1.23174 1.51532 -2.85256 -1.23173 1.51531 87.1209 -17.5852 -119.437 22.3157 12.8833 102.966 -29.8331 30.402 -138.667 -112.663 4.26119 -7.98124 -89.0314 -30.1231 75.1988 -7.09317 -16.9334 26.1995 45.2198 12.6146 -76.6236 99.5806 -15.0184 -10.9636 45.1243 2.11206 -8.11238 -7.63717 6.05244 5.96222 
